HIERARCHY
ROOT Hips
{
  OFFSET 0 0 0
  CHANNELS 6 Xposition Yposition Zposition Zrotation Xrotation Yrotation
  JOINT Spine
  {
    OFFSET 0 10.0588 -0.35816
    CHANNELS 3 Zrotation Xrotation Yrotation
    JOINT Spine1
    {
      OFFSET 0 11.7428 0
      CHANNELS 3 Zrotation Xrotation Yrotation
      JOINT Spine2
      {
        OFFSET 0 13.4203 0
        CHANNELS 3 Zrotation Xrotation Yrotation
        JOINT Neck
        {
          OFFSET 0 15.0978 0
          CHANNELS 3 Zrotation Xrotation Yrotation
          JOINT Head
          {
            OFFSET 0 8.08557 2.68779
            CHANNELS 3 Zrotation Xrotation Yrotation
            End Site
            {
              OFFSET 0 21.4992 7.1467
            }
          }
        }
        JOINT LeftShoulder
        {
          OFFSET 5.94912 13.2477 -0.0644512
          CHANNELS 3 Zrotation Xrotation Yrotation
          JOINT LeftArm
          {
            OFFSET 0 12.4722 0
            CHANNELS 3 Zrotation Xrotation Yrotation
            JOINT LeftForeArm
            {
              OFFSET 0 23.8149 0
              CHANNELS 3 Zrotation Xrotation Yrotation
              JOINT LeftHand
              {
                OFFSET 0 24.5563 0
                CHANNELS 3 Zrotation Xrotation Yrotation
                End Site
                {
                  OFFSET -1.85578 17.3552 -0.291151
                }
              }
            }
          }
        }
        JOINT RightShoulder
        {
          OFFSET -5.94912 13.2478 -0.0672938
          CHANNELS 3 Zrotation Xrotation Yrotation
          JOINT RightArm
          {
            OFFSET 0 12.4722 0
            CHANNELS 3 Zrotation Xrotation Yrotation
            JOINT RightForeArm
            {
              OFFSET 0 23.8199 0
              CHANNELS 3 Zrotation Xrotation Yrotation
              JOINT RightHand
              {
                OFFSET 0 24.5599 0
                CHANNELS 3 Zrotation Xrotation Yrotation
                End Site
                {
                  OFFSET 1.86614 17.4983 -0.349753
                }
              }
            }
          }
        }
      }
    }
  }
  JOINT LeftUpLeg
  {
    OFFSET 9.3921 -5.57221 -0.0932094
    CHANNELS 3 Zrotation Xrotation Yrotation
    JOINT LeftLeg
    {
      OFFSET 0 42.3183 0
      CHANNELS 3 Zrotation Xrotation Yrotation
      JOINT LeftFoot
      {
        OFFSET 0 39.0997 0
        CHANNELS 3 Zrotation Xrotation Yrotation
        JOINT LeftToe
        {
          OFFSET 0 14.7062 0
          CHANNELS 3 Zrotation Xrotation Yrotation
          End Site
          {
            OFFSET 0 5.95384 0
          }
        }
      }
    }
  }
  JOINT RightUpLeg
  {
    OFFSET -9.3921 -5.57221 -0.0152289
    CHANNELS 3 Zrotation Xrotation Yrotation
    JOINT RightLeg
    {
      OFFSET 0 42.326 0
      CHANNELS 3 Zrotation Xrotation Yrotation
      JOINT RightFoot
      {
        OFFSET 0 39.0933 0
        CHANNELS 3 Zrotation Xrotation Yrotation
        JOINT RightToe
        {
          OFFSET 0 14.5999 0
          CHANNELS 3 Zrotation Xrotation Yrotation
          End Site
          {
            OFFSET 0 6.0364 0
          }
        }
      }
    }
  }
}
MOTION
Frames:	11
Frame Time:	0.0416667
-0.748966 90.1667 200.054 -179.431 -59.4338 45.3543 11.0243 5.22654 1.69915 7.20833 1.05291 0.844559 7.19533 1.0607 0.92892 3.9032 -10.9526 -2.33994 -0.921278 -19.5323 -14.8447 -89.6601 24.4255 95.3879 -12.4365 -86.7057 -41.009 8.87396 0.154186 -0.469664 36.484 -58.3738 6.93114 91.1931 21.7868 -94.3279 -23.9325 -28.5314 45.3622 -64.8465 0.878098 1.03486 -84.8592 -62.1549 -130.339 168.938 18.8816 -1.93601 -0.538418 -35.5184 0.356568 0.0318084 66.726 -15.143 0.154186 33.2966 -0.280864 45.189 48.3989 112.997 1.08757 -26.1126 -1.43496 -54.5173 77.514 48.7785 0.0329817 33.5225 -0.0597201 
-0.885489 85.7107 211.404 169.758 -71.6816 31.0953 11.8971 6.25257 1.23599 7.03264 1.70736 0.637326 7.02231 1.71296 0.716062 3.71259 -9.86638 -2.51197 -0.118494 -17.1307 -15.0678 -88.2564 23.8487 94.8706 -24.8543 -82.0839 -41.685 16.7583 0.288131 -0.499813 3.29358 -48.3122 -13.4864 90.535 22.6722 -94.5766 -24.4375 -26.4374 44.3642 -56.1584 0.805009 0.907486 -87.8464 -72.1799 -129.998 168.59 26.7429 -1.41086 -1.19677 -38.8214 -6.65197 7.99632 71.0828 -23.6479 0.154186 33.2966 -0.280864 31.8782 48.9627 127.773 1.67493 -51.1514 0.0102007 -105.887 77.9418 92.2236 0.0329817 33.5225 -0.0597201 
-0.309631 83.376 221.847 136.846 -79.5025 -3.77487 12.9525 7.64402 0.459997 6.57056 2.2153 0.219877 6.56736 2.21567 0.292843 2.28899 -9.1452 -2.3367 -1.27714 -15.303 -14.7828 -92.2019 19.7747 94.7122 -17.4898 -81.31 -31.5712 16.601 0.284844 -0.499167 -10.5104 -38.4748 -23.7971 91.2508 23.2069 -95.0277 -33.1022 -33.5616 38.4624 -29.4297 0.475906 0.607252 -70.282 -82.0888 -98.6123 166.844 36.2207 0.371284 -0.843123 -40.1141 -6.67404 28.8122 73.3833 -43.7544 0.154186 33.2966 -0.280864 25.8213 49.2004 135.865 2.30467 -61.893 4.36892 -100.196 78.5537 87.543 0.0329817 33.5225 -0.0597201 
0.822896 83.011 231.364 77.3177 -78.948 -62.3148 13.6265 9.37267 -0.357081 6.36602 2.95853 -0.193786 6.37085 2.95283 -0.123973 1.26601 -8.38301 -2.1047 -2.90401 -14.3342 -14.331 -97.6896 15.681 94.8236 9.70596 -81.2216 -9.02771 14.0401 0.240922 -0.487131 -11.1423 -31.9929 -28.802 94.3332 22.9594 -95.7565 -35.6385 -40.4189 35.3333 -10.7838 0.183666 0.488963 22.4561 -72.6044 8.1997 165.013 42.9273 2.66822 -0.36066 -39.6054 -6.31082 34.1957 72.4348 -48.9147 0.154186 33.2966 -0.280864 27.3542 49.4863 135.488 2.51259 -64.2861 8.35303 -69.1021 78.0584 58.6451 0.0329817 33.5225 -0.0597201 
2.31772 83.4935 240.24 46.3374 -71.1318 -90.911 13.4651 10.8315 -0.949869 6.29001 3.76425 -0.488819 6.3014 3.7542 -0.421873 1.35059 -7.06955 -2.01027 -3.38773 -13.1715 -13.5603 -100.888 14.2407 95.0242 32.6425 -76.6443 7.79865 15.9573 0.27483 -0.495859 -4.45419 -26.6145 -22.9284 99.4056 21.1669 -96.4938 -19.9679 -34.4257 41.7946 -24.4396 0.40133 0.56771 35.0815 -53.7461 25.5929 164.955 45.1589 3.15318 0.137026 -38.2122 -6.63871 40.845 65.172 -55.3876 0.154186 33.2966 -0.280864 34.0924 51.5869 129.169 2.25547 -62.1439 10.838 -43.2047 72.8374 35.1788 0.0329817 33.5225 -0.0597201 
3.86785 83.969 248.578 35.0079 -61.7606 -100.097 12.6974 11.3573 -1.68863 6.00919 4.22287 -0.924593 6.0301 4.20813 -0.864776 1.7922 -5.09349 -1.88964 -3.63517 -10.7629 -12.0284 -102.572 14.3515 95.2777 39.5955 -69.2027 11.1919 20.4463 0.349114 -0.520309 1.87049 -20.9303 -9.80088 105.823 17.7671 -96.8817 -3.42685 -21.1693 48.959 -48.9643 0.731324 0.811409 35.3438 -36.318 26.7172 166.766 44.9304 0.950916 0.57874 -36.415 -7.13342 37.8633 54.6335 -52.2166 0.154186 33.2966 -0.280864 43.4601 54.6852 120.249 1.56946 -57.2862 10.5436 -34.1468 64.111 28.8963 0.0329817 33.5225 -0.0597201 
5.16767 84.1085 256.346 28.5479 -52.4046 -103.859 11.7207 11.1809 -2.66661 5.55557 4.27213 -1.52298 5.58849 4.25218 -1.4735 2.22149 -2.69744 -1.6909 -4.70618 -7.05695 -9.97293 -104.877 14.15 95.6007 34.9646 -61.9146 6.16689 25.5862 0.431589 -0.555275 1.98431 -15.4939 1.14588 113.262 13.6004 -96.8453 0.446705 -15.7673 49.6211 -53.3383 0.777136 0.869168 27.2094 -21.1145 26.6486 168.636 42.2304 -2.2736 0.858169 -33.9376 -7.13338 30.0895 44.3673 -46.5804 0.154186 33.2966 -0.280864 56.971 56.5813 108.126 1.14519 -51.4339 10.1906 -28.4301 56.0279 25.4698 0.0329817 33.5225 -0.0597201 
6.15615 83.6468 263.769 23.0173 -42.6478 -105.829 10.7742 11.1162 -3.36026 5.13503 4.00514 -1.97427 5.17698 3.98429 -1.93003 2.64885 -0.406779 -1.44587 -5.83075 -3.4317 -7.4989 -107.776 13.0608 95.7363 24.3159 -55.3619 -2.68232 33.4102 0.550375 -0.622473 -4.35124 -11.9882 5.32899 120.562 10.0139 -96.6369 -2.00252 -17.9734 46.8943 -42.7964 0.657923 0.737221 17.0978 -7.45513 28.8042 171.352 37.2988 -5.33274 1.3147 -33.5824 -8.05724 30.4336 44.3857 -53.4483 0.154186 33.2966 -0.280864 74.0662 56.1637 93.5326 0.914834 -45.5886 10.1439 -24.1947 48.9349 23.1463 0.0329817 33.5225 -0.0597201 
7.10734 82.9329 270.49 18.839 -33.2226 -106.137 9.50987 11.437 -3.73781 4.71946 3.48869 -2.27171 4.76882 3.47351 -2.22389 2.79904 1.08042 -0.969286 -5.74115 -1.9646 -4.55009 -110.172 10.8712 95.2103 16.8712 -48.5865 -8.27097 45.0659 0.707577 -0.75102 -12.9316 -11.5352 5.33257 125.417 7.93732 -96.5216 -0.96659 -16.5662 46.7223 -38.4447 0.602772 0.68827 10.6652 0.832379 28.2651 177.123 32.2138 -9.76659 1.30419 -36.4508 -9.23751 36.5167 56.6217 -70.2992 0.154186 33.2966 -0.280864 91.4886 53.5412 78.5106 0.58793 -38.3776 10.0442 -21.848 40.9168 23.9799 0.0329817 33.5225 -0.0597201 
8.31802 83.1453 275.742 16.5524 -26.1096 -103.67 7.6776 11.8085 -4.12514 4.05433 2.89163 -2.58473 4.11216 2.88446 -2.53485 2.65893 1.48397 -0.30255 -4.63694 -2.70689 -1.93643 -112.07 7.71385 94.0597 15.2955 -40.0987 -10.197 58.1035 0.848559 -0.928528 -20.4907 -14.1668 5.70467 126.631 7.10421 -96.4714 3.27745 -7.16431 50.0596 -41.8432 0.646575 0.725565 6.24129 3.75635 25.367 -177.013 31.4404 -15.9298 0.469297 -41.1031 -9.26082 37.7651 63.9309 -72.2961 0.154186 33.2966 -0.280864 106.374 48.4763 64.6125 0.37774 -28.9969 9.98904 -18.4353 34.154 24.6266 0.0329817 33.5225 -0.0597201 
9.46017 84.7367 279.752 15.6583 -21.1622 -98.1971 6.04883 11.9246 -4.4998 3.14704 2.38772 -2.80259 3.21017 2.3853 -2.76488 2.50286 1.24037 0.188629 -4.10831 -3.38552 -0.627856 -114.351 4.66939 92.9183 15.1707 -28.0949 -12.1999 69.3232 0.936519 -1.1083 -26.7168 -19.8686 5.84793 125.373 6.71069 -96.3541 6.81382 6.40508 54.0795 -44.2481 0.676521 0.753439 0.895532 5.62512 25.9385 -174.292 32.3809 -19.6637 -0.391429 -42.9033 -9.99465 29.9008 68.67 -56.3669 0.154186 33.2966 -0.280864 116.028 41.9491 54.5625 0.797483 -23.1821 10.1049 -8.44173 37.0579 18.3389 0.0329817 33.5225 -0.0597201 
